<?xml version="1.0" standalone="no"?>
<!DOCTYPE svg PUBLIC "-//W3C//DTD SVG 20010904//EN"
 "http://www.w3.org/TR/2001/REC-SVG-20010904/DTD/svg10.dtd">
<svg version="1.0" xmlns="http://www.w3.org/2000/svg"
 width="1280.000000pt" height="853.000000pt" viewBox="0 0 1280.000000 853.000000"
 preserveAspectRatio="xMidYMid meet">
<metadata>
Created by potrace 1.15, written by Peter Selinger 2001-2017
</metadata>
<g transform="translate(0.000000,853.000000) scale(0.100000,-0.100000)"
fill="#000000" stroke="none">
<path d="M0 4265 l0 -4265 6400 0 6400 0 0 4265 0 4265 -6400 0 -6400 0 0
-4265z m4774 2199 c372 -51 732 -202 1045 -437 174 -131 459 -434 445 -472 -9
-23 -27 -18 -75 19 -192 146 -470 273 -714 325 -158 34 -275 44 -463 38 -199
-5 -313 -23 -482 -74 -634 -191 -1093 -680 -1221 -1303 -33 -160 -33 -433 0
-590 95 -455 345 -818 746 -1083 297 -196 640 -296 1012 -297 409 0 781 119
1105 355 34 25 67 45 74 45 32 0 19 -35 -38 -106 -201 -253 -462 -461 -763
-609 -232 -114 -455 -181 -715 -216 -136 -18 -429 -16 -575 5 -742 106 -1379
569 -1705 1240 -152 313 -220 611 -220 961 0 346 67 643 215 953 312 650 928
1116 1640 1237 216 37 463 40 689 9z m2406 -1525 c118 -159 220 -295 227 -300
11 -10 62 6 632 202 47 16 86 27 88 26 1 -2 -94 -141 -213 -310 -126 -180
-212 -312 -208 -318 4 -7 105 -143 225 -302 121 -160 218 -292 216 -293 -2 -2
-162 46 -357 106 -195 60 -358 110 -361 110 -3 0 -102 -137 -220 -305 -118
-168 -217 -305 -221 -305 -5 0 -9 138 -9 308 -1 169 -4 338 -8 377 l-6 69
-357 110 c-197 61 -352 114 -345 117 7 4 165 59 351 123 186 63 341 118 344
121 7 7 2 723 -5 742 -17 44 36 -20 227 -278z"/>
</g>
</svg>
